<?xml version="1.0" encoding="UTF-8" standalone="no"?>
<svg
   xmlns:dc="http://purl.org/dc/elements/1.1/"
   xmlns:cc="http://creativecommons.org/ns#"
   xmlns:rdf="http://www.w3.org/1999/02/22-rdf-syntax-ns#"
   xmlns:svg="http://www.w3.org/2000/svg"
   xmlns="http://www.w3.org/2000/svg"
   xmlns:sodipodi="http://sodipodi.sourceforge.net/DTD/sodipodi-0.dtd"
   xmlns:inkscape="http://www.inkscape.org/namespaces/inkscape"
   width="512.01514"
   height="503.29343"
   viewBox="0 0 135.47066 133.16306"
   version="1.1"
   id="svg8"
   inkscape:version="1.0.2 (e86c870879, 2021-01-15, custom)"
   sodipodi:docname="Visinema Group.svg">
  <defs
     id="defs2" />
  <sodipodi:namedview
     id="base"
     pagecolor="#ffffff"
     bordercolor="#666666"
     borderopacity="1.0"
     inkscape:pageopacity="0.0"
     inkscape:pageshadow="2"
     inkscape:zoom="0.70710678"
     inkscape:cx="211.63174"
     inkscape:cy="302.02238"
     inkscape:document-units="mm"
     inkscape:current-layer="layer1"
     inkscape:document-rotation="0"
     showgrid="false"
     units="px"
     inkscape:window-width="1366"
     inkscape:window-height="715"
     inkscape:window-x="-8"
     inkscape:window-y="-8"
     inkscape:window-maximized="1" />
  <metadata
     id="metadata5">
    <rdf:RDF>
      <cc:Work
         rdf:about="">
        <dc:format>image/svg+xml</dc:format>
        <dc:type
           rdf:resource="http://purl.org/dc/dcmitype/StillImage" />
        <dc:title></dc:title>
      </cc:Work>
    </rdf:RDF>
  </metadata>
  <g
     inkscape:label="Layer 1"
     inkscape:groupmode="layer"
     id="layer1"
     transform="translate(-0.34112368,-0.10590899)">
    <path
       id="path44"
       style="fill:#000000;stroke-width:0.0787161"
       d="m 41.431012,101.17674 c -0.238119,-0.0173 -2.345744,-0.13647 -4.683618,-0.26478 -5.676128,-0.31155 -5.364694,-0.2843 -5.825005,-0.50971 -1.052514,-0.515392 -2.73804,-2.967412 -3.41097,-4.962106 -0.131449,-0.389644 -0.326964,-1.102618 -0.434483,-1.584391 -0.332953,-1.491982 -0.612552,-2.085354 -2.165137,-4.594835 -0.495526,-0.800937 -1.069828,-1.731885 -1.276213,-2.068774 -0.883062,-1.441436 -0.999228,-2.700709 -0.414369,-4.491747 0.367761,-1.126216 0.150365,-1.912364 -0.660666,-2.389101 -0.371233,-0.218216 -0.391919,-0.22091 -1.753199,-0.228481 -1.030033,-0.0058 -1.49668,-0.04096 -1.849832,-0.139706 -0.6668,-0.186431 -1.065345,-0.485311 -1.253936,-0.940346 -0.135265,-0.326389 -0.143759,-0.427389 -0.06677,-0.794435 0.07751,-0.369456 0.576438,-1.677577 1.248684,-3.273771 0.28478,-0.676188 0.299114,-1.445694 0.04242,-2.277656 -0.22105,-0.71645 -0.526956,-1.060991 -1.015275,-1.143495 -0.520067,-0.08785 -0.898599,0.01686 -1.551738,0.429289 -0.332411,0.209903 -0.78248,0.424365 -1.000156,0.476587 -1.055135,0.25312 -2.306582,-0.329325 -2.778039,-1.292938 -0.272927,-0.557878 -0.316096,-1.050815 -0.16626,-1.898717 0.24066,-1.361805 0.151727,-2.195348 -0.413336,-3.873995 -0.17176,-0.510232 -0.357561,-1.211073 -0.412897,-1.557425 -0.150074,-0.939244 -0.118933,-2.711085 0.07609,-4.329395 0.808147,-6.706044 1.045085,-8.178361 2.096546,-13.027543 1.128632,-5.205109 1.230806,-6.006911 0.818072,-6.419646 -0.104967,-0.104967 -0.49129,-0.315663 -0.858501,-0.468223 -0.367211,-0.152561 -0.774142,-0.383951 -0.904286,-0.514204 -0.374863,-0.375167 -0.328546,-0.840815 0.30505,-3.067192 0.795539,-2.795392 0.879535,-3.050566 1.263767,-3.839055 0.823291,-1.689498 1.667452,-2.623705 3.68914,-4.082652 1.314111,-0.948328 3.65597,-2.91049 3.795326,-3.179975 0.287213,-0.555414 0.113353,-0.7506 -1.840417,-2.066109 -2.174176,-1.463917 -2.970358,-2.261722 -3.564241,-3.571497 -0.437457,-0.964794 -0.573674,-1.725724 -0.575587,-3.21528 -0.0015,-1.185189 0.02744,-1.491208 0.253219,-2.676709 0.28489,-1.495729 0.295267,-1.368137 -0.213162,-2.62153 -0.373287,-0.9202407 -0.42317,-1.3629628 -0.180881,-1.6052552 0.189729,-0.1897253 0.380441,-0.2013341 1.016299,-0.06186 0.866177,0.1899989 1.1759,-0.00377 2.218058,-1.3877903 1.20911,-1.6057225 2.93033,-2.5396163 5.144744,-2.791432 0.767422,-0.087268 0.835619,-0.08286 1.282807,0.08291 1.425993,0.5286072 2.794791,0.9601013 3.083483,0.9720255 0.24738,0.010209 0.376341,-0.031465 0.522667,-0.1689291 0.203954,-0.1916083 0.225506,-0.2567781 0.598323,-1.8095317 0.382337,-1.5924329 0.890671,-2.453487 1.811431,-3.06834557 1.123944,-0.75054118 1.797755,-0.85097766 4.896452,-0.72984935 1.96268,0.0767219 2.33145,0.11049535 2.577619,0.23608633 0.498384,0.25425237 1.348591,0.46607373 2.560437,0.63790669 0.645175,0.091481 1.459885,0.2498254 1.810472,0.3518775 0.350595,0.1020519 2.833621,1.0765734 5.517845,2.165607 4.751156,1.9276226 7.397125,2.9793394 9.406594,3.7389247 1.213473,0.4586985 2.457474,1.0374721 2.963705,1.378871 0.77394,0.5219461 1.146275,0.8287119 1.252456,1.0319084 0.330105,0.6317171 2.253867,6.0213611 2.395555,6.7114251 0.119962,0.584286 -0.01234,1.812672 -0.24887,2.310833 -0.280394,0.590495 -1.128469,0.928306 -1.845681,0.73518 -0.177238,-0.04772 -1.080138,-0.575929 -2.006446,-1.173787 -1.478417,-0.954204 -3.206218,-2.019774 -7.152028,-4.410807 -1.18897,-0.720479 -1.452181,-0.786662 -1.728993,-0.434752 -0.192461,0.244675 -0.20727,0.502251 -0.04672,0.812729 0.06783,0.131186 0.585262,0.562277 1.239779,1.032929 4.926026,3.542179 11.293268,8.310718 11.643797,8.720234 0.430208,0.502599 0.761605,1.184957 0.989517,2.037478 l 0.205264,0.767779 -0.0021,3.660303 c -0.0024,4.161686 0.0026,4.119985 -0.692835,5.66757 -0.705549,1.569858 -0.826519,2.401108 -0.738861,5.077202 0.0925,2.823619 0.08163,5.531016 -0.02359,5.882212 -0.108329,0.361585 -1.651319,2.207591 -2.793774,3.342436 -0.606602,0.602565 -0.850153,0.783352 -1.4591,1.083127 -0.956694,0.47096 -1.738466,0.661352 -3.131804,0.762716 -1.483473,0.107913 -1.887034,0.06086 -2.818232,-0.328485 C 53.778773,51.771091 52.815373,51.373588 52.057728,51.063311 51.001419,50.630711 50.40486,50.32578 49.49945,49.755639 46.861595,48.09457 46.178196,47.37948 44.977027,45.023452 44.266651,43.630104 43.843064,42.473437 43.359242,40.605884 43.12052,39.684389 42.768084,38.432593 42.576054,37.824122 41.814766,35.411839 41.743197,35.086953 41.62551,33.509356 c -0.113301,-1.51889 -0.252601,-2.231846 -0.755426,-3.866397 -0.145334,-0.472446 -0.312458,-0.850813 -0.42591,-0.964272 -0.248216,-0.24821 -0.588743,-0.241732 -0.896294,0.01704 -0.195108,0.164177 -0.242186,0.264184 -0.242186,0.514472 0,0.730706 0.987559,6.483263 1.456834,8.486112 0.147779,0.630748 0.393115,1.738775 0.545179,2.462278 0.791421,3.765577 1.498616,5.59194 2.896697,7.480858 0.603942,0.815978 2.147072,2.398015 3.140235,3.219416 0.416733,0.344656 0.872042,0.768939 1.011794,0.942838 0.389354,0.4845 1.366295,1.221959 2.1186,1.599255 2.371495,1.189346 6.400831,1.719839 8.454355,1.113079 1.453568,-0.429491 3.360817,-1.633222 4.99879,-3.154909 1.183279,-1.099272 2.811869,-3.272629 2.99384,-3.995281 0.161154,-0.640013 0.25041,-1.838798 0.32845,-4.411262 0.08561,-2.82179 0.168378,-3.869705 0.401303,-5.080802 0.141312,-0.734725 0.869597,-3.831966 1.102369,-4.688106 0.255955,-0.94143 2.227575,-1.962673 4.961195,-2.569771 0.621911,-0.13812 1.520397,-0.368435 1.996629,-0.51181 1.32714,-0.399555 3.357958,-1.199326 3.579842,-1.409805 0.23959,-0.227268 1.392924,-0.91483 2.835535,-1.690405 1.822923,-0.980043 2.760467,-1.691986 3.739021,-2.839307 0.672668,-0.788685 1.42962,-1.405955 3.778381,-3.081151 2.107941,-1.503439 3.545026,-2.429273 4.325467,-2.786651 0.630479,-0.28871 2.165592,-0.823109 2.364462,-0.823109 0.0726,0 0.372382,0.105496 0.666184,0.234456 0.790515,0.34696 1.380217,0.480312 2.135492,0.482914 1.190572,0.0041 1.821472,-0.226779 3.535942,-1.293962 2.45687,-1.529299 4.3768,-2.228133 6.61587,-2.408124 2.34157,-0.188223 4.95175,0.419421 6.68718,1.556767 1.11406,0.730123 2.96548,2.822502 4.29333,4.852106 1.45111,2.218038 1.4946,2.313448 1.77553,3.896456 0.0883,0.49788 0.22902,1.176806 0.31261,1.508725 0.18434,0.732012 0.19754,1.727874 0.0332,2.508869 -0.0653,0.310404 -0.20721,1.118579 -0.31539,1.795941 -0.25871,1.620062 -0.4411,2.221866 -0.75285,2.48419 -0.29247,0.246085 -0.38358,0.251824 -0.65156,0.04103 -0.2642,-0.207825 -0.41592,-0.753197 -0.48033,-1.726595 -0.17139,-2.589742 -1.31009,-5.17811 -3.19548,-7.263564 -0.60774,-0.672229 -0.93245,-0.844208 -1.59396,-0.844208 -0.62435,0 -1.11195,0.231888 -1.32571,0.630462 -0.19902,0.371088 -0.19371,1.282134 0.0122,2.092335 0.31981,1.258453 0.92597,2.294668 3.81775,6.526361 1.95058,2.854359 2.75401,4.102598 3.51028,5.453584 1.33506,2.385011 2.24173,4.756312 2.64012,6.904871 0.11711,0.631578 0.14524,1.160558 0.14233,2.676352 -0.003,1.753422 -0.0191,1.962444 -0.22002,2.908473 -0.11903,0.560608 -0.37723,1.481589 -0.57377,2.046623 -0.19654,0.56504 -0.47287,1.40111 -0.61407,1.857946 -0.2833,0.916597 -0.42916,1.190103 -0.70056,1.313775 -0.37474,0.170736 -0.5999,0.02907 -1.79694,-1.130754 -0.82463,-0.798973 -1.29864,-1.195335 -1.62882,-1.36201 -0.44403,-0.224145 -0.47161,-0.228574 -0.59238,-0.09511 -0.11731,0.129613 -0.10401,0.19812 0.17963,0.925952 0.16847,0.432288 0.92635,1.97318 1.6842,3.424207 2.89325,5.539647 2.75234,5.100561 2.73773,8.530504 -0.0132,3.117134 -0.10385,4.413888 -0.39043,5.588855 -0.32666,1.339389 -0.40301,1.932029 -0.40248,3.124375 8.9e-4,1.84925 0.17457,2.670939 1.28812,6.091442 1.0466,3.214905 1.29414,4.281495 1.47173,6.341349 0.10015,1.161783 0.0528,2.480367 -0.13516,3.767677 -0.13462,0.921791 -0.5174,2.487953 -0.68841,2.816609 -0.28675,0.551141 -3.18878,3.149486 -5.85748,5.244526 -1.59,1.248229 -2.15347,1.519109 -3.35138,1.611199 -1.00928,0.0775 -9.67393,-0.17772 -10.66122,-0.31413 -0.58216,-0.0804 -2.10266,-0.565573 -2.76424,-0.881949 -0.27823,-0.133055 -0.4008,-0.255915 -0.54468,-0.545978 -0.18067,-0.364234 -0.18659,-0.441375 -0.22074,-2.873144 -0.04,-2.847144 -0.0948,-3.340702 -0.455091,-4.092318 -0.43416,-0.905925 -0.94062,-1.366204 -3.020963,-2.745505 -2.140917,-1.419465 -2.658721,-1.885149 -3.098454,-2.786602 -0.432089,-0.885801 -0.56723,-1.628425 -0.514126,-2.825322 0.04666,-1.051522 0.168018,-1.724069 0.675998,-3.745871 0.438743,-1.746281 0.914723,-3.929712 1.079665,-4.952701 0.161668,-1.002649 0.09358,-1.648932 -0.250287,-2.375798 -0.244225,-0.516261 -0.863076,-1.171723 -1.269906,-1.34504 -0.382278,-0.162857 -1.702467,-0.226934 -2.408371,-0.116877 -0.696999,0.108668 -1.125367,0.322501 -1.900391,0.948683 -0.966619,0.78099 -4.631075,3.540696 -5.476896,4.124661 -0.413015,0.285148 -0.939607,0.592819 -1.170196,0.683711 -1.023272,0.403335 -2.952854,0.892889 -4.533593,1.150221 -2.39686,0.390181 -2.893026,0.487458 -3.857093,0.756241 -1.0734,0.299271 -3.631828,1.252842 -4.897168,1.825257 -1.95757,0.885581 -2.724361,1.055695 -3.608298,0.800539 -0.669245,-0.193189 -0.89661,-0.354177 -2.038435,-1.44339 -1.034248,-0.986577 -1.460369,-1.297828 -1.902793,-1.389855 -0.230318,-0.0479 -0.253681,-0.03107 -0.373905,0.269384 -0.177276,0.443076 -0.166327,0.604589 0.149719,2.207981 0.767704,3.894836 0.968241,6.587324 0.600834,8.066923 -0.464765,1.871676 -1.357123,3.938096 -1.877673,4.348097 -0.453353,0.357082 -1.022156,0.616843 -1.677459,0.766084 -1.633899,0.3721 -1.915876,0.498661 -3.841703,1.724208 -1.849603,1.177044 -2.304621,1.371025 -3.787809,1.61477 -0.960095,0.15778 -1.90543,0.724475 -3.233332,1.938261 -1.27656,1.166839 -1.892664,1.533979 -2.833787,1.688609 -0.55495,0.0912 -2.763931,0.16217 -3.463514,0.1113 z M 31.964586,9.4064919 c 1.070303,-0.498303 1.263622,-1.9200272 0.368242,-2.7081677 -0.712736,-0.6273807 -1.572933,-0.603571 -2.23847,0.061963 -0.836351,0.8363549 -0.641796,2.1115375 0.401484,2.6314247 0.52336,0.2608035 0.931491,0.2649093 1.468744,0.014786 z" />
    <path
       id="path40"
       style="fill:#000000;stroke-width:0.0787161"
       d="m 125.1064,132.88968 c 0,-0.28235 0.02,-0.30742 0.33197,-0.4161 0.20446,-0.0712 0.39594,-0.21089 0.49851,-0.36359 0.0914,-0.13637 0.93174,-2.08461 1.86703,-4.32941 0.93531,-2.24479 1.83032,-4.39139 1.98896,-4.77021 l 0.28839,-0.68877 h 0.30518 c 0.23166,0 0.33148,0.0426 0.41434,0.17711 0.06,0.0975 1.00712,2.28474 2.10459,4.86073 2.09776,4.92382 2.23893,5.19529 2.70178,5.19529 0.1863,0 0.20465,0.0283 0.20465,0.31484 v 0.31487 h -1.16878 -1.16879 l -0.12691,-0.29517 c -0.0698,-0.16237 -0.3788,-0.94165 -0.68666,-1.73177 l -0.55976,-1.43656 h -2.11321 -2.1132 l -0.12438,0.33454 c -0.0685,0.18398 -0.34619,0.95444 -0.61723,1.71209 l -0.49284,1.37752 -0.7668,0.0225 -0.76682,0.0226 z m 6.57512,-4.21173 c -0.45507,-1.08072 -1.62944,-3.79671 -1.68318,-3.8927 -0.0493,-0.0882 -0.11934,0.0109 -0.2693,0.38131 -0.11143,0.27527 -0.50401,1.23549 -0.87237,2.13384 l -0.66972,1.63337 h 1.80115 1.80114 z" />
    <path
       style="fill:#000000;stroke-width:0.0787161"
       d="m 102.76613,132.85168 c 0.0238,-0.32653 0.0307,-0.33384 0.36896,-0.39123 0.47008,-0.0797 0.69236,-0.24335 0.8065,-0.59375 0.07,-0.21502 0.10491,-1.56049 0.12756,-4.92052 l 0.0311,-4.62458 h 1.08681 c 0.81308,0 1.10889,0.0266 1.17448,0.10562 0.0779,0.0938 0.43261,1.02811 2.50871,6.60679 0.28635,0.76946 0.54492,1.37166 0.57459,1.33816 0.0551,-0.0623 0.37935,-0.95886 1.84358,-5.09871 0.45939,-1.29881 0.88315,-2.48546 0.9417,-2.63699 l 0.10646,-0.27551 1.15026,-0.0217 1.15024,-0.0218 v 4.88609 4.88609 l 0.19321,0.19322 c 0.16253,0.16252 0.26878,0.19322 0.66908,0.19322 h 0.47589 v 0.35421 0.35422 h -2.20406 -2.20406 v -0.35422 -0.35421 h 0.43812 c 0.55723,0 0.71596,-0.0881 0.81747,-0.45354 0.11048,-0.39786 0.1142,-8.89808 0.004,-8.78772 -0.0433,0.0433 -0.86238,2.25544 -1.82016,4.91584 -0.95774,2.66039 -1.77677,4.88136 -1.82006,4.93545 -0.11537,0.14428 -0.43591,0.11999 -0.5213,-0.0395 -0.0788,-0.14743 -1.25428,-3.23975 -2.74509,-7.22201 -0.50243,-1.3421 -0.94427,-2.47531 -0.98187,-2.51824 -0.0387,-0.0442 -0.0583,1.76334 -0.0454,4.17196 0.0209,3.88236 0.0349,4.27194 0.16152,4.50351 0.16748,0.30641 0.35513,0.41493 0.83527,0.48309 0.36285,0.0514 0.36442,0.0531 0.38854,0.38569 l 0.0242,0.33395 h -1.78017 -1.78017 l 0.0242,-0.33275 z"
       id="path38" />
    <path
       style="fill:#000000;stroke-width:0.0787161"
       d="m 84.567521,132.83028 v -0.35422 h 0.47588 c 0.400297,0 0.506556,-0.0307 0.669087,-0.19321 l 0.19321,-0.19322 v -4.88399 -4.88399 h 3.935814 3.935811 v 1.02333 1.0233 h -0.343258 -0.343256 l -0.0462,-0.39006 c -0.06054,-0.51115 -0.230242,-0.75485 -0.631525,-0.90685 -0.276167,-0.10461 -0.677336,-0.12083 -2.532215,-0.10247 l -2.204057,0.0219 v 2.08598 2.08598 l 1.47593,0.0214 1.475931,0.0213 v 0.31139 0.31141 l -1.475931,0.0213 -1.47593,0.0213 -0.02095,2.14375 c -0.0201,2.05923 -0.01469,2.15002 0.137756,2.30246 0.151543,0.15154 0.25703,0.15864 2.343066,0.15755 1.577004,-9.1e-4 2.236983,-0.0282 2.373578,-0.0984 0.304916,-0.15671 0.498899,-0.48749 0.54064,-0.9219 l 0.03876,-0.40348 0.324137,0.0237 0.324146,0.0237 0.02196,1.043 0.02195,1.04297 h -4.60719 -4.607185 z"
       id="path36" />
    <path
       style="fill:#000000;stroke-width:0.0787161"
       d="m 63.314133,132.87658 c 0,-0.30108 0.0074,-0.30917 0.334542,-0.36353 0.474219,-0.0788 0.743491,-0.23676 0.903907,-0.53027 0.127843,-0.23392 0.140949,-0.63778 0.162211,-4.99715 l 0.02312,-4.74267 h 0.650596 c 0.401809,0 0.698059,0.0376 0.774703,0.0984 0.06826,0.054 0.861014,1.05481 1.761677,2.22375 0.900664,1.16893 2.24191,2.90461 2.980544,3.8571 l 1.342985,1.73174 0.0204,-3.9577 0.0204,-3.95772 1.081626,0.0219 1.081617,0.0219 0.02537,0.22124 c 0.02987,0.26044 -0.101719,0.44786 -0.314425,0.44786 -0.25004,0 -0.60606,0.22439 -0.72696,0.45818 -0.0624,0.12067 -0.169262,0.51361 -0.237486,0.87325 -0.103004,0.54299 -0.124027,1.3531 -0.124027,4.77777 v 4.12389 h -0.266786 c -0.146735,0 -0.337363,-0.0618 -0.42362,-0.13774 -0.08625,-0.0757 -1.053069,-1.32441 -2.148483,-2.77476 -2.891729,-3.82872 -4.48862,-5.92654 -4.613787,-6.06114 -0.09403,-0.1011 -0.106565,0.43637 -0.08727,3.73902 0.0202,3.45764 0.03643,3.88244 0.156584,4.10183 0.13998,0.2556 0.372691,0.37904 0.869594,0.46131 0.283103,0.0468 0.295187,0.0617 0.295187,0.36018 v 0.3113 h -1.771117 -1.771113 z"
       id="path34" />
    <path
       style="fill:#000000;stroke-width:0.0787161"
       d="m 49.80595,133.0731 c -0.02349,-0.0613 -0.03126,-0.21183 -0.01719,-0.33454 0.02475,-0.21622 0.04217,-0.22434 0.5633,-0.26247 0.411641,-0.0301 0.56394,-0.0752 0.649412,-0.19216 0.09358,-0.12805 0.111665,-0.94731 0.111665,-5.05753 v -4.90472 h 0.86588 0.865877 l 8.92e-4,4.7033 c 0,3.00804 0.02991,4.80937 0.08216,4.99756 0.101506,0.36549 0.260239,0.45355 0.81747,0.45355 h 0.438111 v 0.35422 0.35421 h -2.16717 c -1.796271,0 -2.174481,-0.0189 -2.209927,-0.1114 z"
       id="path32" />
    <path
       style="fill:#000000;stroke-width:0.0787161"
       d="m 18.918161,132.83156 v -0.35547 h 0.463576 c 0.339109,0 0.513474,-0.0404 0.649408,-0.15046 l 0.185834,-0.15045 0.02142,-4.92674 0.02141,-4.92676 h 0.864139 0.864148 v 4.8717 c 0,5.65834 -0.06734,5.2134 0.799599,5.28236 l 0.49922,0.0396 v 0.31487 0.31485 l -2.184379,0.0209 -2.184374,0.0209 z"
       id="path30" />
    <path
       style="fill:#000000;stroke-width:0.0787161"
       d="m 5.5687421,133.1243 c -0.047149,-0.0318 -0.9798978,-2.1818 -2.0727719,-4.77775 -1.0928773,-2.59595 -2.0577714,-4.81924 -2.1442131,-4.94064 -0.1860687,-0.26131 -0.53033283,-0.45449 -0.80993299,-0.45449 -0.18188886,0 -0.20070043,-0.0297 -0.20070043,-0.31692 v -0.31691 l 1.19748472,0.0217 1.1974848,0.0217 1.7881854,4.17197 c 0.9835066,2.29457 1.8172523,4.15995 1.8527721,4.14528 0.063348,-0.0262 0.5336204,-1.19038 2.3580605,-5.83768 0.5013912,-1.27718 0.9553621,-2.36847 1.0088187,-2.42508 0.062014,-0.0656 0.2411411,-0.0942 0.4947391,-0.0788 l 0.397527,0.0242 -1.2122146,2.95186 c -0.6667115,1.62352 -1.6435777,4.01453 -2.1708015,5.31336 -0.527227,1.2988 -0.991834,2.40575 -1.032462,2.45987 -0.080031,0.10662 -0.5129554,0.13193 -0.6519758,0.0381 z"
       id="path28" />
    <path
       style="fill:#000000;stroke-width:0.0787161"
       d="m 35.709693,133.145 c -0.617964,-0.13433 -1.105035,-0.35015 -1.687479,-0.74773 -0.253577,-0.17308 -0.513673,-0.31471 -0.577992,-0.31471 -0.137595,0 -0.30438,0.29819 -0.431892,0.77214 -0.08569,0.31858 -0.106579,0.33774 -0.342794,0.31489 l -0.251536,-0.0243 -0.02099,-2.07112 -0.02099,-2.07112 0.293132,0.0246 0.29314,0.0246 0.240745,0.71607 c 0.616545,1.83379 1.868047,2.79634 3.66244,2.81678 1.170927,0.0133 1.966984,-0.37445 2.381545,-1.16013 0.24201,-0.45866 0.240777,-1.2978 -0.0026,-1.75928 -0.266659,-0.50561 -0.668822,-0.69181 -2.517189,-1.16544 -2.46244,-0.63096 -2.951521,-0.83409 -3.517852,-1.46095 -0.469536,-0.51971 -0.6206,-0.94352 -0.615286,-1.72606 0.0097,-1.4355 0.713837,-2.44432 1.981894,-2.83965 1.079128,-0.33642 2.425405,-0.27926 3.484389,0.14796 1.058919,0.42719 1.595533,1.0037 1.691945,1.81774 l 0.04757,0.40165 H 38.89757 37.995265 l -0.09005,-0.48424 c -0.188265,-1.01233 -0.704659,-1.40736 -1.832096,-1.40149 -1.063198,0.006 -1.726752,0.33894 -2.078203,1.04421 -0.222279,0.44606 -0.241747,0.64255 -0.107902,1.0893 0.215769,0.72015 0.882844,1.09706 2.860362,1.61615 1.898005,0.4982 2.253072,0.62389 2.732578,0.96726 0.795687,0.56978 1.162555,1.3299 1.171087,2.42644 0.0069,0.8928 -0.186873,1.43007 -0.730488,2.02486 -0.874544,0.9569 -2.592172,1.3737 -4.210877,1.02184 z"
       id="path24" />
  </g>
</svg>
